# xmcd CD database file
#
# Track frame offsets:
#	150
#	18484
#	39344
#	58570
#	80813
#
# Disc length: 1378 seconds
#
# Revision: 0
# Processed by: cddbd v1.5.1PL2 Copyright (c) Steve Scherf et al.
# Submitted via: CDex 1.51
#
DISCID=37056005
DTITLE=SULFURIC ACID - 【s∧lfj'urik 'aesid】
DYEAR=2006
DGENRE=Visual Rock
TTITLE0=螺旋
TTITLE1=sensitive to recall
TTITLE2=深海と僕と君の体温
TTITLE3=アシッド・トリップ〜極上Sコース〜
TTITLE4=Love of infinity
EXTD=YEAR: 2006
EXTT0=
EXTT1=
EXTT2=
EXTT3=
EXTT4=
PLAYORDER=
